<?xml version="1.0" standalone="no"?>
<!DOCTYPE svg PUBLIC "-//W3C//DTD SVG 20010904//EN"
 "http://www.w3.org/TR/2001/REC-SVG-20010904/DTD/svg10.dtd">
<svg version="1.0" xmlns="http://www.w3.org/2000/svg"
 width="360.000000pt" height="345.000000pt" viewBox="0 0 360.000000 345.000000"
 preserveAspectRatio="xMidYMid meet">

<g transform="translate(0.000000,345.000000) scale(0.100000,-0.100000)"
fill="#000000" stroke="none">
<path d="M717 3440 c-129 -33 -296 -145 -457 -309 -210 -213 -292 -426 -245
-637 77 -351 406 -897 809 -1343 315 -349 758 -677 1239 -917 480 -241 734
-276 997 -138 147 77 356 265 445 399 90 137 114 270 65 370 -47 97 -291 307
-575 495 -165 109 -225 135 -310 135 -139 -1 -194 -55 -344 -336 -66 -125 -97
-164 -148 -185 -64 -27 -92 -17 -288 106 -305 191 -631 498 -806 756 -153 228
-143 292 62 377 279 116 393 227 375 367 -12 97 -207 442 -349 618 -143 177
-334 276 -470 242z m154 -177 c126 -62 306 -287 444 -556 70 -137 78 -172 43
-204 -41 -37 -157 -103 -256 -144 -53 -22 -116 -51 -139 -65 -80 -46 -124
-133 -125 -241 0 -53 6 -76 40 -147 78 -163 206 -329 408 -530 199 -199 401
-353 646 -495 116 -68 168 -82 251 -69 131 20 195 81 307 292 100 188 140 236
194 236 43 0 67 -11 196 -93 227 -144 521 -388 550 -458 41 -98 -95 -303 -309
-465 -139 -105 -260 -154 -381 -154 -246 0 -833 283 -1275 615 -485 365 -906
870 -1166 1400 -180 366 -181 520 -5 752 93 121 289 280 405 329 73 30 105 30
172 -3z"/>
</g>
</svg>
