<?xml version="1.0" standalone="no"?>
<!DOCTYPE svg PUBLIC "-//W3C//DTD SVG 20010904//EN"
 "http://www.w3.org/TR/2001/REC-SVG-20010904/DTD/svg10.dtd">
<svg version="1.0" xmlns="http://www.w3.org/2000/svg"
 width="225.000000pt" height="225.000000pt" viewBox="0 0 225.000000 225.000000"
 preserveAspectRatio="xMidYMid meet">

<g transform="translate(0.000000,225.000000) scale(0.100000,-0.100000)"
fill="#000000" stroke="none">
<path d="M975 2239 c-153 -19 -327 -84 -464 -173 -86 -55 -225 -186 -292 -276
-158 -210 -240 -510 -210 -779 28 -260 126 -472 303 -657 106 -110 189 -172
313 -234 318 -157 682 -157 1000 0 55 27 129 72 165 99 90 67 221 206 276 292
217 335 241 756 64 1114 -62 124 -124 207 -234 313 -247 237 -574 344 -921
301z m396 -152 c350 -91 622 -362 716 -715 23 -84 26 -117 26 -247 0 -130 -3
-163 -26 -247 -43 -163 -151 -352 -256 -453 l-32 -29 -6 24 c-13 48 -83 175
-127 231 -50 64 -135 133 -213 174 -29 15 -53 28 -53 29 0 1 31 33 68 71 73
75 114 148 133 236 16 76 6 212 -21 282 -50 132 -174 246 -311 288 -57 17 -88
20 -167 17 -118 -6 -188 -30 -275 -96 -120 -92 -187 -230 -187 -388 0 -142 48
-252 155 -353 30 -29 55 -54 55 -56 0 -1 -23 -15 -52 -30 -79 -42 -156 -103
-210 -170 -47 -58 -118 -184 -131 -235 l-6 -24 -32 29 c-105 101 -213 290
-256 453 -36 135 -38 343 -5 476 99 395 399 674 806 752 106 20 288 11 407
-19z m-116 -488 c73 -27 156 -104 192 -177 25 -51 28 -68 28 -157 0 -84 -4
-107 -24 -147 -35 -71 -92 -130 -163 -169 -60 -32 -68 -34 -163 -34 -95 0
-103 2 -163 34 -71 39 -128 98 -163 169 -20 40 -24 63 -24 147 0 89 3 106 28
157 35 71 119 150 190 177 72 28 188 28 262 0z m-12 -834 c200 -42 372 -203
430 -402 l16 -53 -27 -21 c-48 -37 -192 -100 -291 -127 -83 -22 -116 -25 -246
-25 -130 0 -163 3 -247 26 -96 25 -245 91 -292 128 -25 19 -25 20 -9 72 26 88
73 168 136 235 143 148 334 209 530 167z"/>
</g>
</svg>
