<?xml version="1.0" standalone="no"?>
<!DOCTYPE svg PUBLIC "-//W3C//DTD SVG 20010904//EN"
 "http://www.w3.org/TR/2001/REC-SVG-20010904/DTD/svg10.dtd">
<svg version="1.0" xmlns="http://www.w3.org/2000/svg"
 width="457.000000pt" height="364.000000pt" viewBox="0 0 457.000000 364.000000"
 preserveAspectRatio="xMidYMid meet">

<g transform="translate(0.000000,364.000000) scale(0.100000,-0.100000)"
fill="#000000" stroke="none">
<path d="M878 3162 c-31 -18 -58 -67 -58 -103 0 -12 73 -227 161 -478 89 -251
188 -530 219 -620 32 -90 66 -175 77 -188 10 -14 208 -134 440 -267 232 -134
428 -248 435 -253 7 -6 22 -7 33 -3 16 6 9 12 -40 41 -33 19 -234 135 -447
258 -214 123 -388 227 -388 232 0 4 152 8 338 8 185 1 569 4 852 7 l515 6 107
-44 c64 -27 112 -42 119 -37 19 11 17 12 -101 59 -58 23 -109 45 -114 50 -5 5
-37 169 -71 365 -34 195 -64 357 -66 359 -2 2 -23 6 -46 9 -53 6 -61 -17 -9
-27 27 -5 36 -12 40 -34 30 -149 117 -675 112 -680 -10 -9 -1688 -24 -1697
-15 -4 4 -96 258 -204 563 -108 305 -205 579 -216 608 -33 91 -19 147 45 172
15 5 237 -28 692 -104 368 -62 674 -115 681 -119 6 -4 14 -24 18 -44 4 -21 11
-44 17 -50 21 -26 25 -1 8 59 l-17 62 -669 113 c-368 62 -685 113 -704 112
-19 0 -47 -7 -62 -17z"/>
<path d="M790 2962 c0 -4 84 -243 186 -532 250 -706 231 -645 211 -668 -23
-26 -22 -84 3 -107 18 -16 41 -17 115 -4 6 1 179 -95 386 -214 207 -120 384
-217 393 -217 31 0 16 15 -57 56 -39 22 -219 125 -399 228 -317 183 -327 188
-349 172 -31 -21 -45 -20 -69 4 -26 26 -25 44 4 72 l23 23 -203 575 c-112 316
-208 585 -214 598 -9 21 -30 31 -30 14z"/>
<path d="M3272 1711 c-19 -12 95 -54 115 -42 12 6 2 14 -41 30 -66 24 -58 23
-74 12z"/>
<path d="M3420 1655 c-7 -8 90 -50 358 -155 455 -177 452 -176 452 -194 0 -18
69 -9 -915 -112 -450 -46 -831 -82 -847 -79 -15 4 -75 34 -133 67 -73 42 -109
58 -116 51 -12 -12 178 -126 237 -142 24 -7 77 -5 172 5 216 23 567 60 1092
114 267 27 495 52 507 55 27 6 41 49 23 69 -6 8 -111 54 -233 102 -122 48
-304 119 -405 159 -134 53 -185 69 -192 60z"/>
<path d="M3770 1185 c-876 -95 -1297 -137 -1330 -132 -19 3 -94 39 -167 81
-122 70 -163 88 -163 69 1 -14 284 -171 320 -177 32 -6 1748 168 1758 178 6 6
-7 26 -16 25 -4 -1 -185 -21 -402 -44z"/>
<path d="M3673 713 c-7 -2 -13 -12 -13 -22 0 -37 -33 -49 -153 -52 -124 -4
-112 0 -169 -68 -14 -17 -38 -81 -38 -103 0 -5 9 -8 19 -8 22 0 31 19 31 65 0
46 22 65 76 65 24 0 44 -4 44 -9 0 -5 -9 -76 -20 -157 -23 -174 -23 -164 -11
-164 5 0 15 16 22 35 7 19 16 35 20 35 3 0 9 26 13 58 3 31 11 90 17 130 l12
72 33 0 c19 0 34 5 34 10 0 6 7 10 17 10 21 0 73 58 73 81 0 10 6 20 13 22 6
3 8 5 2 5 -5 0 -16 -2 -22 -5z"/>
<path d="M930 633 c-24 -10 -74 -66 -95 -108 -11 -22 -24 -43 -30 -47 -5 -4
-10 -51 -10 -105 0 -84 3 -101 20 -120 11 -12 26 -29 34 -39 12 -13 26 -16 80
-11 36 3 67 10 69 16 2 6 10 11 18 11 8 0 14 7 14 16 0 11 -6 14 -22 8 -13 -3
-24 -11 -26 -15 -5 -12 -82 -11 -82 1 0 6 -7 10 -16 10 -21 0 -44 60 -44 118
0 59 25 158 45 179 8 8 15 17 15 21 0 4 11 19 24 35 18 20 32 27 60 27 45 0
66 -19 66 -59 0 -17 4 -31 9 -31 13 0 19 84 7 92 -13 9 -114 9 -136 1z"/>
<path d="M1183 603 c-21 -21 -47 -56 -58 -78 -11 -22 -24 -43 -30 -47 -5 -4
-10 -51 -10 -105 0 -84 3 -101 20 -120 11 -12 26 -29 33 -37 21 -26 106 -21
134 7 13 13 30 26 39 29 16 6 59 106 59 139 0 10 5 19 10 19 6 0 10 28 10 65
0 37 -4 65 -10 65 -5 0 -10 7 -10 15 0 17 -28 65 -45 77 -5 4 -31 8 -57 8 -41
0 -52 -5 -85 -37z m107 17 c0 -5 6 -10 14 -10 19 0 26 -23 33 -100 5 -62 -9
-168 -25 -180 -4 -3 -18 -26 -31 -52 -13 -27 -30 -48 -37 -48 -8 0 -14 -4 -14
-10 0 -5 -11 -10 -25 -10 -14 0 -25 5 -25 10 0 6 -6 10 -14 10 -17 0 -36 72
-36 137 0 50 25 163 38 173 4 3 16 18 26 35 11 16 24 35 30 42 13 15 66 17 66
3z"/>
<path d="M1533 633 c-12 -2 -25 -13 -28 -24 -4 -10 -11 -19 -16 -19 -5 0 -9
-6 -9 -14 0 -8 -6 -21 -13 -28 -16 -15 -28 -68 -16 -68 25 0 39 15 39 42 0 35
29 88 47 88 7 0 13 5 13 10 0 6 7 10 15 10 8 0 15 -3 15 -7 -1 -52 -41 -337
-47 -342 -5 -3 -15 -21 -22 -38 -11 -27 -19 -33 -42 -33 -16 0 -29 4 -29 8 0
5 -6 17 -14 27 -13 18 -14 18 -26 -4 -16 -30 -1 -41 57 -41 34 0 45 5 54 22 7
13 17 26 22 30 17 11 46 118 53 200 6 76 19 100 29 56 10 -46 25 -181 26 -231
0 -29 3 -46 6 -39 2 6 10 12 17 12 7 0 25 39 41 88 15 48 33 92 39 97 6 6 20
36 30 68 11 31 21 55 23 53 2 -2 -6 -77 -17 -167 -11 -89 -20 -169 -20 -176 0
-15 59 -6 77 13 19 19 16 24 -13 24 l-27 0 8 72 c3 40 10 75 14 78 4 3 13 48
20 100 7 52 15 105 18 118 4 18 1 22 -21 22 -17 0 -29 -7 -32 -17 -3 -10 -9
-25 -13 -33 -5 -9 -12 -30 -16 -48 -3 -18 -12 -38 -19 -45 -7 -6 -25 -48 -42
-92 l-29 -80 -3 43 c-2 23 -7 42 -13 42 -5 0 -9 10 -9 22 0 12 -7 64 -17 115
l-16 93 -36 -1 c-20 -1 -46 -4 -58 -6z"/>
<path d="M2022 633 c-38 -7 -83 -58 -93 -104 -11 -48 -10 -50 18 -43 16 4 22
16 26 49 5 45 25 75 50 75 9 0 17 6 20 13 2 6 7 10 10 7 9 -8 -15 -200 -25
-200 -4 0 -8 -17 -9 -37 0 -21 -6 -60 -12 -88 -10 -43 -16 -50 -38 -53 -16 -2
-31 -12 -38 -28 l-11 -25 73 3 c65 3 72 5 75 25 3 18 -2 22 -29 25 -31 3 -32
4 -16 20 28 27 43 85 56 208 7 63 15 123 17 133 8 26 49 21 62 -8 6 -14 16
-25 22 -25 5 0 10 -20 10 -45 0 -25 -4 -45 -10 -45 -5 0 -10 -7 -10 -14 0 -20
-41 -63 -65 -69 -11 -2 -4 -3 15 -1 19 2 36 8 38 14 2 5 10 10 18 10 8 0 24
19 34 43 36 77 21 150 -32 161 -33 7 -119 6 -156 -1z"/>
<path d="M2335 633 c-24 -7 -64 -50 -71 -80 -4 -13 -10 -23 -15 -23 -5 0 -9
-11 -9 -25 0 -14 4 -25 9 -25 20 0 41 33 41 63 1 37 20 67 44 67 9 0 16 5 16
10 0 6 7 10 16 10 10 0 13 -6 10 -18 -11 -33 -36 -227 -36 -277 0 -28 9 -69
20 -92 16 -36 24 -43 47 -43 47 0 70 11 82 36 12 27 0 32 -23 9 -23 -24 -55
-19 -62 10 -3 14 -10 25 -15 25 -5 0 -9 29 -9 65 0 36 4 65 8 65 4 0 13 42 20
93 7 50 15 102 18 115 6 20 3 22 -32 21 -22 -1 -48 -4 -59 -6z"/>
<path d="M2566 613 c-3 -16 -8 -63 -12 -105 -3 -43 -10 -78 -14 -78 -4 0 -10
-25 -13 -56 -3 -30 -10 -61 -16 -68 -14 -17 -2 -106 14 -106 7 0 27 3 44 6 36
8 43 39 10 47 -18 5 -21 11 -16 39 3 18 14 97 23 176 10 78 21 142 26 142 4 0
8 7 8 15 0 9 -9 15 -24 15 -19 0 -26 -7 -30 -27z"/>
<path d="M2793 633 c-13 -2 -23 -9 -23 -14 0 -5 -6 -9 -14 -9 -17 0 -56 -76
-56 -109 0 -38 24 -18 33 28 9 44 37 81 61 81 8 0 17 6 20 13 3 6 3 -31 0 -83
-4 -72 -10 -98 -22 -108 -14 -10 -14 -14 -4 -21 11 -6 11 -24 2 -92 -18 -139
-31 -188 -52 -194 -10 -4 -18 -11 -18 -16 0 -20 -47 -8 -60 16 -13 24 -14 24
-27 5 -21 -30 -1 -60 42 -60 18 0 40 7 49 15 8 8 19 15 24 15 15 0 49 77 64
140 6 30 15 57 19 60 4 3 9 28 11 55 l3 50 43 3 c54 4 55 22 1 22 -39 0 -40 1
-35 28 3 15 8 60 11 100 7 72 7 72 37 72 34 0 58 -20 58 -49 0 -31 19 -26 26
7 3 15 7 33 10 40 2 9 -19 12 -89 11 -51 -1 -102 -4 -114 -6z"/>
<path d="M3090 633 c-8 -4 -22 -14 -31 -25 -9 -10 -21 -18 -26 -18 -10 0 -27
-45 -38 -97 -4 -18 -4 -33 0 -33 17 0 35 32 35 64 0 20 4 36 8 36 5 0 15 11
22 25 7 14 19 25 27 25 7 0 13 5 13 10 0 6 7 10 15 10 8 0 15 -4 15 -10 0 -5
-4 -10 -8 -10 -5 0 -16 -68 -25 -150 -19 -162 -30 -200 -58 -200 -10 0 -25
-13 -34 -30 l-16 -30 109 0 c95 0 109 2 125 20 26 31 21 35 -41 32 -33 -2 -71
-2 -86 0 l-28 3 21 24 c12 13 21 30 21 38 0 7 4 13 10 13 5 0 13 18 16 40 6
40 7 40 50 40 24 0 44 5 44 10 0 6 -19 10 -43 10 l-42 0 9 100 9 100 37 0 c39
0 50 -11 50 -51 0 -10 7 -19 15 -19 8 0 15 8 15 18 0 9 3 27 6 40 6 22 5 22
-87 21 -52 0 -101 -3 -109 -6z"/>
<path d="M3399 252 c-16 -2 -31 -12 -37 -28 -12 -24 -12 -24 48 -24 55 0 90
15 90 40 0 9 -62 17 -101 12z"/>
</g>
</svg>
