<?xml version="1.0" standalone="no"?>
<!DOCTYPE svg PUBLIC "-//W3C//DTD SVG 20010904//EN"
 "http://www.w3.org/TR/2001/REC-SVG-20010904/DTD/svg10.dtd">
<svg version="1.0" xmlns="http://www.w3.org/2000/svg"
 width="360.000000pt" height="360.000000pt" viewBox="0 0 360.000000 360.000000"
 preserveAspectRatio="xMidYMid meet">

<g transform="translate(0.000000,360.000000) scale(0.100000,-0.100000)"
fill="#000000" stroke="none">
<path d="M1680 3160 c-416 -49 -733 -357 -809 -784 -16 -85 -14 -219 4 -322
28 -160 56 -212 480 -919 40 -66 129 -217 200 -335 212 -358 219 -369 237
-373 10 -3 27 2 37 11 10 10 126 197 256 417 131 220 306 515 390 656 168 281
186 313 215 391 40 108 53 189 53 323 0 201 -49 370 -152 525 -200 300 -542
453 -911 410z m306 -99 c585 -121 861 -794 535 -1306 -21 -33 -109 -179 -196
-325 -479 -808 -518 -871 -530 -858 -7 7 -106 171 -220 363 -115 193 -283 476
-375 630 -231 387 -256 457 -248 699 4 115 9 143 38 230 88 259 284 461 526
540 147 48 320 58 470 27z"/>
<path d="M1723 2725 c-243 -53 -358 -335 -222 -545 93 -144 273 -202 434 -140
82 32 173 123 203 203 26 68 29 189 7 251 -60 169 -244 270 -422 231z m161
-89 c63 -19 131 -77 163 -139 36 -70 37 -170 4 -240 -50 -103 -166 -166 -278
-153 -65 8 -100 24 -154 73 -64 58 -84 104 -84 198 0 96 21 142 91 204 74 65
164 85 258 57z"/>
</g>
</svg>
