<?xml version="1.0" standalone="no"?>
<!DOCTYPE svg PUBLIC "-//W3C//DTD SVG 20010904//EN"
 "http://www.w3.org/TR/2001/REC-SVG-20010904/DTD/svg10.dtd">
<svg version="1.0" xmlns="http://www.w3.org/2000/svg"
 width="360.000000pt" height="360.000000pt" viewBox="0 0 360.000000 360.000000"
 preserveAspectRatio="xMidYMid meet">

<g transform="translate(0.000000,360.000000) scale(0.100000,-0.100000)"
fill="#000000" stroke="none">
<path d="M709 2765 c-59 -19 -131 -83 -160 -142 l-23 -47 0 -776 c1 -762 1
-776 21 -820 26 -56 71 -103 126 -133 l42 -22 1085 0 1085 0 43 23 c60 32 109
87 132 150 19 51 20 79 20 802 0 724 -1 751 -20 802 -23 62 -85 128 -145 155
-38 17 -104 18 -1100 20 -893 2 -1067 0 -1106 -12z m2162 -46 c73 -25 82 -11
-217 -329 -33 -36 -94 -101 -134 -145 -102 -112 -399 -432 -560 -605 -74 -80
-138 -145 -141 -145 -5 0 -311 320 -793 830 -89 93 -201 212 -251 263 -49 52
-91 97 -93 102 -2 4 14 15 35 23 34 14 156 16 1079 16 757 1 1050 -2 1075 -10z
m-1874 -436 c197 -208 412 -434 477 -502 111 -116 118 -126 100 -137 -10 -7
-102 -77 -204 -155 -102 -79 -308 -237 -458 -351 l-273 -209 -19 23 c-49 58
-50 71 -50 847 0 500 4 738 11 766 10 35 44 95 54 95 2 0 164 -170 362 -377z
m2010 317 l23 -43 0 -756 c0 -709 -2 -758 -19 -796 -36 -80 -25 -85 -287 121
-132 103 -258 202 -281 220 -170 130 -393 308 -393 313 0 3 44 53 98 111 673
728 816 880 826 877 5 -2 20 -23 33 -47z m-1184 -1170 c8 0 27 15 42 33 15 17
54 60 87 95 l60 62 381 -298 c210 -164 414 -323 454 -353 40 -29 72 -58 72
-62 1 -4 -15 -15 -34 -23 -29 -12 -190 -14 -1083 -14 -1014 0 -1112 3 -1112
29 0 4 167 135 372 291 205 157 415 318 468 358 l95 74 91 -96 c50 -53 98 -96
107 -96z"/>
</g>
</svg>
